<?xml version="1.0" encoding="UTF-8"?>
<svg version="1.1" xmlns="http://www.w3.org/2000/svg" width="1024" height="1024">
<path d="M0 0 C337.92 0 675.84 0 1024 0 C1024 337.92 1024 675.84 1024 1024 C686.08 1024 348.16 1024 0 1024 C0 686.08 0 348.16 0 0 Z " fill="#FDFDFD" transform="translate(0,0)"/>
<path d="M0 0 C13.86279651 -0.09931079 27.72544115 -0.17102296 41.58854675 -0.20761871 C45.6315133 -0.21861341 49.6743589 -0.23637352 53.7172699 -0.26016998 C58.49559417 -0.28771868 63.27372651 -0.29980294 68.05212784 -0.30058479 C69.79144962 -0.3031779 71.53077353 -0.31072746 73.27004623 -0.324049 C85.37864263 -0.41170588 96.86114694 0.80884007 108.7624054 3.02355194 C109.94112717 3.23606598 111.11984894 3.44858002 112.33428955 3.66753387 C138.80715751 8.68861234 166.52613617 24.84736082 182.3874054 46.83605194 C183.52866499 48.5545306 184.65337568 50.28409931 185.7624054 52.02355194 C186.34892883 52.91558319 186.93545227 53.80761444 187.53974915 54.72667694 C201.40995851 76.94329238 204.92367113 106.86509193 199.24702454 132.33605194 C193.17395488 155.88399891 181.82742322 174.80252481 164.7624054 192.02355194 C164.03537415 192.76347382 163.3083429 193.50339569 162.5592804 194.26573944 C148.43151383 207.69250996 129.30781791 216.37759567 111.0749054 222.52355194 C110.03463196 222.87433807 108.99435852 223.22512421 107.92256165 223.58654022 C103.36426416 225.0654512 99.59435351 226.22734471 94.7624054 226.02355194 C99.15667282 231.74599022 103.66106999 237.36451705 108.24287415 242.93761444 C111.10779203 246.44658363 113.93737823 249.98245886 116.7624054 253.52355194 C121.71564559 259.72913844 126.72034422 265.88981514 131.7624054 272.02355194 C134.76606555 275.68723425 137.76545045 279.3543828 140.7624054 283.02355194 C141.49765442 283.92315643 141.49765442 283.92315643 142.24775696 284.84093475 C148.43543259 292.41635772 154.57694418 300.02108231 160.59565735 307.73155975 C164.65763418 312.92231229 168.82310233 318.02565064 172.99458313 323.12853241 C176.3495948 327.24588809 179.61916663 331.41429991 182.8249054 335.64855194 C186.3891646 340.32736776 190.10184597 344.82595005 193.9499054 349.27355194 C201.68509983 358.24460493 201.68509983 358.24460493 204.0749054 361.14855194 C204.62791321 361.81113007 205.18092102 362.47370819 205.75068665 363.15636444 C206.7624054 365.02355194 206.7624054 365.02355194 206.32563782 367.14025116 C206.04683777 368.07248505 206.04683777 368.07248505 205.7624054 369.02355194 C197.98953634 369.09383383 190.21674518 369.14675203 182.44363594 369.17898846 C178.83216557 369.19447973 175.22091645 369.2154046 171.60957336 369.2498703 C140.59515724 369.5378392 113.09125795 366.82684271 87.7624054 347.02355194 C87.13849915 346.56593475 86.5145929 346.10831757 85.8717804 345.63683319 C76.15944889 338.0802762 69.47478704 326.25269167 62.65278625 316.1795578 C59.26131981 311.17969523 55.79633548 306.25294958 52.1999054 301.39855194 C46.2509119 293.36870585 40.505091 285.20168528 34.7624054 277.02355194 C32.78495656 274.20983947 30.80581469 271.39732926 28.8249054 268.58605194 C28.08530579 267.53611053 28.08530579 267.53611053 27.33076477 266.46495819 C23.7042034 261.32850551 20.0212907 256.23488888 16.3249054 251.14855194 C11.19824739 244.09180371 6.25311801 236.92529449 1.35639954 229.70763397 C-2.23261122 224.43707397 -5.9789457 219.32507398 -9.85087585 214.25792694 C-13.59897226 209.26046507 -17.0528488 204.04808488 -20.54618835 198.87120819 C-23.59629201 194.36400055 -26.73417374 189.96036063 -30.04936218 185.64366913 C-32.92403967 181.72413763 -32.95021053 177.73473502 -32.2375946 173.02355194 C-30.21762862 169.18561658 -27.28478789 166.55826351 -23.2375946 165.02355194 C-20.09288025 164.76526642 -20.09288025 164.76526642 -16.33622742 164.75231171 C-15.64933334 164.74708496 -14.96243927 164.74185822 -14.25473022 164.73647308 C-12.76464872 164.72624635 -11.27453163 164.72045499 -9.7844162 164.71859169 C-7.41038666 164.71491116 -5.03676873 164.69813136 -2.66282654 164.67783356 C4.08674872 164.62263501 10.83638781 164.59201147 17.58613586 164.56725311 C21.72118044 164.55117572 25.85594148 164.52073602 29.9908371 164.48248863 C31.5517546 164.47099589 33.11272335 164.46490969 34.67368317 164.46480751 C56.89243878 164.46282857 80.93556683 160.41438818 97.5124054 144.42198944 C106.22759131 135.13184335 111.81346266 123.78690885 112.3249054 110.89855194 C111.72254218 99.10491417 107.41150355 88.54340197 98.95381165 80.25011444 C82.26498777 66.57985123 59.7163095 66.42144135 39.3561554 66.41417694 C36.93520517 66.39916819 34.51426508 66.38243547 32.09333801 66.36406708 C25.77405788 66.32068418 19.4549158 66.30045926 13.13551331 66.28533173 C6.66600987 66.26565519 0.19665327 66.22369751 -6.27275085 66.18370819 C-18.92764865 66.10872131 -31.58252342 66.05748092 -44.2375946 66.02355194 C-44.3229673 67.26337074 -44.3229673 67.26337074 -44.4100647 68.52823639 C-44.89876907 75.28833769 -45.53987784 81.96769619 -46.55400085 88.66808319 C-46.68319412 89.54680588 -46.81238739 90.42552856 -46.94549561 91.33087921 C-47.22526979 93.23020856 -47.5070374 95.12924516 -47.79063416 97.02800751 C-48.25413349 100.13439611 -48.71115524 103.24168468 -49.16679382 106.34923553 C-49.99382227 111.98381562 -50.82680332 117.61749521 -51.66215515 123.25084686 C-52.17196172 126.68991799 -52.68041421 130.12918746 -53.18876648 133.56847382 C-54.97150195 145.61134312 -56.78785714 157.64833779 -58.64764404 169.67954254 C-60.29592327 180.36060416 -61.9011308 191.04799684 -63.50485229 201.73581696 C-63.7352615 203.27134504 -63.96567433 204.80687259 -64.1960907 206.3423996 C-64.31141175 207.11098203 -64.42673281 207.87956446 -64.54554844 208.67143726 C-65.38988408 214.29626881 -66.23779822 219.9205538 -67.08769226 225.54454803 C-67.20928396 226.34916159 -67.33087566 227.15377514 -67.45615196 227.98277092 C-67.94075812 231.18898741 -68.4254872 234.39518525 -68.91051865 237.60133743 C-70.18477649 246.02484481 -71.45282591 254.44907912 -72.69471741 262.87743378 C-73.21190443 266.37480102 -73.73900063 269.8706099 -74.26963806 273.36595917 C-74.49278931 274.85117191 -74.7114158 276.3370739 -74.92478943 277.82372284 C-78.68680725 303.99715649 -90.57706587 326.24019183 -111.2375946 343.02355194 C-125.51775436 353.42366829 -143.63663311 362.28578485 -161.6125946 362.08605194 C-162.67220398 362.0770285 -163.73181335 362.06800507 -164.8235321 362.05870819 C-165.62017273 362.04710663 -166.41681335 362.03550507 -167.2375946 362.02355194 C-166.77727999 347.2014215 -164.43329048 332.66827285 -162.2375946 318.02355194 C-161.56528277 313.48180268 -160.89661547 308.93952098 -160.22853088 304.39714813 C-159.9191671 302.29578925 -159.60881822 300.19457739 -159.29838562 298.09337616 C-157.3117536 284.62641766 -155.3986495 271.14917508 -153.48457336 257.6717453 C-151.26228208 242.03691033 -148.96482338 226.41440229 -146.62974548 210.7960434 C-143.91607033 192.6402339 -141.30812287 174.48075633 -138.96195984 156.27379608 C-137.6069124 145.7627252 -136.1774147 135.26462521 -134.6750946 124.77355194 C-134.5704187 124.04243195 -134.4657428 123.31131195 -134.3578949 122.5580368 C-132.87570116 112.23336377 -131.30444519 101.92397437 -129.69096375 91.61901093 C-127.83609996 79.64482425 -126.27753786 67.63170404 -124.70732117 55.61754608 C-122.18308731 36.30400831 -122.18308731 36.30400831 -120.7375946 27.46105194 C-119.99836013 22.90437534 -119.2650233 18.35179307 -118.67118835 13.77355194 C-118.50747742 12.51542694 -118.34376648 11.25730194 -118.1750946 9.96105194 C-118.03974304 8.85632538 -117.90439148 7.75159882 -117.76493835 6.61339569 C-117.2375946 4.02355194 -117.2375946 4.02355194 -115.2375946 2.02355194 C-112.34647054 1.70529379 -109.54987144 1.52864056 -106.64775085 1.43370819 C-105.69215775 1.39689438 -104.73656464 1.36008057 -103.75201416 1.32215118 C-86.73513483 0.73132637 -69.70008193 0.63473661 -52.6750946 0.46105194 C-51.71352825 0.45100632 -50.7519619 0.44096069 -49.76125717 0.43061066 C-33.17438243 0.2574299 -16.58733229 0.12066485 0 0 Z " fill="#0C0E0F" transform="translate(484.2375946044922,316.97644805908203)"/>
</svg>
